<svg width="51" height="51" viewBox="0 0 51 51" fill="none" xmlns="http://www.w3.org/2000/svg">
<rect x="0.5" y="0.5" width="50" height="50" rx="9.5" fill="white"/>
<rect x="0.5" y="0.5" width="50" height="50" rx="9.5" stroke="#E7E7E7"/>
<path d="M27.0642 20.6845L27.8092 20.3785C28.4142 20.1385 29.1962 19.8935 30.1192 20.0485C32.0102 20.3665 33.3142 21.3875 34.0912 22.7415C34.3912 23.2635 34.1492 23.9515 33.5892 24.1705C33.1095 24.3581 32.6994 24.6894 32.415 25.1189C32.1306 25.5484 31.9858 26.0553 32.0003 26.5702C32.0149 27.0852 32.1881 27.5831 32.4963 27.9958C32.8045 28.4086 33.2326 28.7162 33.7222 28.8765C34.2402 29.0465 34.5322 29.6215 34.3622 30.1395C33.9202 31.4815 33.2842 32.7205 32.5312 33.7205C31.7872 34.7085 30.8792 35.5285 29.8682 35.9295C29.1962 36.1955 28.4782 36.0895 27.7902 35.9165L27.3822 35.8065L26.7972 35.6435L26.4782 35.5645C26.3217 35.5254 26.1614 35.503 26.0002 35.4975C25.8702 35.4975 25.7152 35.5215 25.5222 35.5645L25.2022 35.6445L24.4152 35.8625C23.6672 36.0655 22.8712 36.2225 22.1322 35.9295C20.8592 35.4255 19.7362 34.2495 18.8872 32.8625C17.9692 31.3345 17.3629 29.6399 17.1032 27.8765C16.8762 26.3225 16.9992 24.5775 17.7182 23.1015C18.4582 21.5805 19.8142 20.3965 21.8812 20.0485C22.7212 19.9075 23.4432 20.0965 24.0212 20.3135L24.3522 20.4435L24.9362 20.6845C25.3362 20.8415 25.6512 20.9335 26.0002 20.9335C26.3482 20.9335 26.6642 20.8415 27.0642 20.6845ZM24.1902 22.5415L23.8422 22.3985C23.1112 22.0925 22.7042 21.9385 22.2122 22.0205C20.8202 22.2555 19.9912 23.0025 19.5162 23.9775C19.0202 24.9955 18.8962 26.3095 19.0822 27.5875C19.3102 29.1455 19.8712 30.6375 20.5932 31.8195C21.3312 33.0245 22.1642 33.7915 22.8682 34.0695C23.1082 34.1645 23.4532 34.0895 23.7732 33.9915L24.2162 33.8455L24.3382 33.8075L24.7712 33.6875C25.1572 33.5875 25.5922 33.4975 26.0002 33.4975C26.4072 33.4975 26.8432 33.5875 27.2292 33.6875L27.6622 33.8075L27.7842 33.8455L28.2272 33.9915C28.5472 34.0895 28.8922 34.1645 29.1322 34.0695C29.6792 33.8535 30.3152 33.3375 30.9322 32.5175C31.3922 31.9075 31.8122 31.1655 32.1552 30.3405C31.497 29.9386 30.9531 29.3742 30.5757 28.7016C30.1983 28.029 30.0002 27.2707 30.0002 26.4995C30.0002 25.0525 30.6822 23.7675 31.7402 22.9445C31.2672 22.4945 30.6332 22.1635 29.7882 22.0205C29.3452 21.9465 28.9712 22.0635 28.3682 22.3115L28.1582 22.3985C27.6172 22.6255 26.8822 22.9335 26.0002 22.9335C25.2952 22.9335 24.6832 22.7365 24.1902 22.5415ZM25.7682 16.7675C26.7442 15.7905 28.2432 15.7065 28.5962 16.0605C28.9502 16.4135 28.8662 17.9125 27.8892 18.8885C26.9132 19.8645 25.4142 19.9485 25.0612 19.5955C24.7072 19.2425 24.7912 17.7435 25.7682 16.7675Z" fill="black"/>
</svg>
