<svg width="51" height="51" viewBox="0 0 51 51" fill="none" xmlns="http://www.w3.org/2000/svg">
<rect x="0.5" y="0.5" width="50" height="50" rx="9.5" fill="white"/>
<rect x="0.5" y="0.5" width="50" height="50" rx="9.5" stroke="#E7E7E7"/>
<path d="M27.3646 16.83C29.1127 17.06 30.7587 17.7848 32.1086 18.919C32.4466 19.203 32.4446 19.713 32.1326 20.025L30.5166 21.641C30.2046 21.953 29.7006 21.947 29.3456 21.685C28.4601 21.0307 27.3947 20.6647 26.294 20.6367C25.1934 20.6086 24.1107 20.9199 23.193 21.5283C22.2753 22.1366 21.5671 23.0126 21.1643 24.0373C20.7615 25.062 20.6837 26.1858 20.9416 27.2562C21.1994 28.3267 21.7803 29.2918 22.6055 30.0208C23.4306 30.7497 24.4601 31.2071 25.5541 31.3309C26.6482 31.4547 27.7538 31.2389 28.721 30.7128C29.6882 30.1867 30.4701 29.3757 30.9606 28.39H27.0506C26.8384 28.39 26.635 28.3057 26.4849 28.1557C26.3349 28.0057 26.2506 27.8022 26.2506 27.59V25.3C26.2506 25.0878 26.3349 24.8844 26.4849 24.7343C26.635 24.5843 26.8384 24.5 27.0506 24.5H34.5436C34.8596 24.5 35.1536 24.686 35.2246 24.995C35.5376 26.357 35.0996 28.241 35.0666 28.379L35.0626 28.395C34.5346 30.358 33.4016 32.101 31.7886 33.339C30.5818 34.2649 29.1652 34.8789 27.6644 35.1265C26.1636 35.3742 24.6249 35.248 23.1845 34.759C21.7442 34.27 20.4467 33.4333 19.4069 32.3231C18.3671 31.2129 17.6171 29.8634 17.2234 28.3942C16.8297 26.9249 16.8044 25.3812 17.1498 23.8998C17.4951 22.4185 18.2005 21.0451 19.2033 19.9014C20.2062 18.7578 21.4756 17.8791 22.8992 17.3431C24.3227 16.8072 25.8565 16.6316 27.3646 16.83Z" stroke="black" stroke-width="1.5" stroke-linecap="round" stroke-linejoin="round"/>
</svg>
