<svg width="1064" height="403" viewBox="0 0 1064 403" fill="none" xmlns="http://www.w3.org/2000/svg">
<path d="M18.5031 238.399C16.3312 238.399 15.2453 237.063 15.2453 234.39V152.194C15.2453 149.521 16.3312 148.184 18.5031 148.184C20.7585 148.184 21.8861 149.521 21.8861 152.194V234.39C21.8861 237.063 20.7585 238.399 18.5031 238.399ZM50.3192 238.399C48.2309 238.399 47.1868 237.063 47.1868 234.39V178.507C47.1868 175.833 48.2309 174.497 50.3192 174.497C52.4911 174.497 53.577 175.833 53.577 178.507V187.403C56.6677 183.226 60.4267 180.052 64.8539 177.88C69.3647 175.625 74.2931 174.497 79.6392 174.497C87.6584 174.497 93.7145 176.585 97.8076 180.762C101.984 184.939 104.073 191.078 104.073 199.181V234.39C104.073 237.063 102.987 238.399 100.815 238.399C98.7265 238.399 97.6823 237.063 97.6823 234.39V199.181C97.6823 192.749 96.2205 188.029 93.2968 185.022C90.3732 182.015 85.8207 180.511 79.6392 180.511C74.4602 180.511 69.9077 181.555 65.9816 183.644C62.0556 185.649 59.0066 188.53 56.8348 192.289C54.6629 196.048 53.577 200.35 53.577 205.195V234.39C53.577 237.063 52.4911 238.399 50.3192 238.399ZM160.749 226.245C161.501 226.83 161.877 227.498 161.877 228.25C161.877 228.919 161.584 229.67 160.999 230.506C159.412 232.845 157.115 234.766 154.108 236.269C151.184 237.689 148.135 238.399 144.961 238.399C139.949 238.399 135.94 236.812 132.932 233.638C130.009 230.464 128.547 226.204 128.547 220.858V181.388H121.28C119.943 181.388 118.982 181.18 118.398 180.762C117.813 180.261 117.521 179.509 117.521 178.507C117.521 176.669 118.774 175.75 121.28 175.75H128.547V153.447C128.547 150.774 129.633 149.437 131.805 149.437C133.893 149.437 134.937 150.774 134.937 153.447V175.75H153.857C156.363 175.75 157.616 176.669 157.616 178.507C157.616 179.509 157.324 180.261 156.739 180.762C156.155 181.18 155.194 181.388 153.857 181.388H134.937V221.359C134.937 228.71 138.279 232.385 144.961 232.385C147.3 232.385 149.305 232.009 150.976 231.257C152.646 230.422 154.317 229.044 155.987 227.123C156.99 226.037 157.95 225.494 158.869 225.494C159.538 225.494 160.164 225.744 160.749 226.245ZM205.483 238.399C194.707 238.399 186.437 235.601 180.673 230.004C174.993 224.324 172.153 216.263 172.153 205.822C172.153 199.473 173.49 193.96 176.163 189.282C178.836 184.521 182.678 180.887 187.69 178.381C192.702 175.792 198.591 174.497 205.357 174.497C211.706 174.497 217.302 175.541 222.147 177.629C227.076 179.634 230.918 182.474 233.675 186.15C236.431 189.825 237.81 194.044 237.81 198.805C237.81 202.063 236.974 204.61 235.304 206.448C233.633 208.286 231.252 209.205 228.162 209.205H178.919C178.919 216.472 181.258 222.152 185.936 226.245C190.614 230.339 197.129 232.385 205.483 232.385C210.745 232.385 215.172 231.8 218.764 230.631C222.44 229.378 225.781 227.331 228.788 224.491C230.125 223.322 231.127 222.737 231.795 222.737C232.213 222.737 232.714 222.946 233.299 223.364C234.218 224.115 234.677 224.909 234.677 225.744C234.677 226.496 234.385 227.164 233.8 227.749C230.626 231.257 226.616 233.93 221.771 235.768C217.01 237.522 211.58 238.399 205.483 238.399ZM226.408 203.566C228.162 203.566 229.415 203.19 230.166 202.439C230.918 201.687 231.294 200.434 231.294 198.68C231.294 195.255 230.166 192.164 227.911 189.408C225.739 186.567 222.649 184.396 218.639 182.892C214.713 181.305 210.286 180.511 205.357 180.511C196.92 180.511 190.405 182.516 185.811 186.526C181.3 190.535 179.044 196.215 179.044 203.566H226.408ZM259.985 238.399C257.896 238.399 256.852 237.063 256.852 234.39V146.054C256.852 143.381 257.896 142.044 259.985 142.044C262.157 142.044 263.243 143.381 263.243 146.054V234.39C263.243 237.063 262.157 238.399 259.985 238.399ZM291.677 238.399C289.588 238.399 288.544 237.063 288.544 234.39V146.054C288.544 143.381 289.588 142.044 291.677 142.044C293.848 142.044 294.934 143.381 294.934 146.054V234.39C294.934 237.063 293.848 238.399 291.677 238.399ZM322.993 159.962C321.656 159.962 320.445 159.419 319.359 158.333C318.273 157.247 317.73 156.036 317.73 154.7C317.73 153.28 318.273 152.068 319.359 151.066C320.445 149.98 321.656 149.437 322.993 149.437C324.329 149.437 325.582 149.98 326.752 151.066C327.921 152.152 328.506 153.363 328.506 154.7C328.506 156.036 327.921 157.247 326.752 158.333C325.582 159.419 324.329 159.962 322.993 159.962ZM322.993 238.399C320.904 238.399 319.86 237.063 319.86 234.39V178.507C319.86 175.833 320.904 174.497 322.993 174.497C325.164 174.497 326.25 175.833 326.25 178.507V234.39C326.25 237.063 325.164 238.399 322.993 238.399ZM418.925 238.399C413.579 238.399 409.277 236.395 406.019 232.385C402.761 228.376 399.754 221.86 396.997 212.838L379.205 154.825C378.871 153.488 378.704 152.653 378.704 152.319C378.704 149.562 380.583 148.184 384.342 148.184C386.18 148.184 387.558 148.56 388.477 149.312C389.479 150.064 390.273 151.4 390.858 153.321L408.4 211.836C410.321 218.017 412.075 222.403 413.662 224.992C415.249 227.498 417.003 228.751 418.925 228.751C420.846 228.751 422.6 227.457 424.187 224.867C425.858 222.278 427.612 217.934 429.45 211.836L447.117 153.196C447.702 151.358 448.453 150.064 449.372 149.312C450.375 148.56 451.795 148.184 453.632 148.184C457.308 148.184 459.146 149.562 459.146 152.319C459.146 153.071 459.02 153.906 458.77 154.825L440.852 212.838C438.012 222.111 434.921 228.71 431.58 232.636C428.239 236.478 424.02 238.399 418.925 238.399ZM496.58 238.399C485.72 238.399 477.242 235.601 471.144 230.004C465.13 224.324 462.122 216.472 462.122 206.448C462.122 196.508 465.088 188.698 471.019 183.017C477.033 177.337 485.345 174.497 495.953 174.497C502.469 174.497 508.233 175.541 513.245 177.629C518.34 179.634 522.308 182.516 525.148 186.275C527.988 189.95 529.408 194.169 529.408 198.93C529.408 202.606 528.322 205.446 526.15 207.451C524.062 209.455 521.055 210.458 517.129 210.458H473.65C473.65 216.305 475.613 220.858 479.539 224.115C483.549 227.29 489.229 228.877 496.58 228.877C500.923 228.877 504.682 228.417 507.857 227.498C511.114 226.58 514.163 225.076 517.003 222.988C519.092 221.568 520.679 220.858 521.765 220.858C522.767 220.858 523.686 221.275 524.521 222.111C525.691 223.28 526.276 224.491 526.276 225.744C526.276 226.997 525.691 228.167 524.521 229.253C517.672 235.351 508.358 238.399 496.58 238.399ZM513.62 201.687C515.124 201.687 516.21 201.394 516.878 200.81C517.546 200.225 517.881 199.181 517.881 197.677C517.881 193.668 515.834 190.41 511.741 187.904C507.731 185.314 502.469 184.02 495.953 184.02C489.187 184.02 483.799 185.607 479.79 188.781C475.864 191.955 473.901 196.257 473.901 201.687H513.62ZM547.973 238.399C546.135 238.399 544.715 237.898 543.713 236.896C542.794 235.81 542.334 234.348 542.334 232.51V180.386C542.334 176.46 544.214 174.497 547.973 174.497C549.727 174.497 551.105 175.04 552.108 176.126C553.11 177.128 553.611 178.548 553.611 180.386V186.776C559.125 179.425 566.601 175.75 576.04 175.75H579.047C581.052 175.75 582.597 176.168 583.683 177.003C584.769 177.838 585.312 179.049 585.312 180.637C585.312 182.14 584.727 183.31 583.558 184.145C582.472 184.98 580.968 185.398 579.047 185.398H575.288C568.689 185.398 563.468 187.361 559.626 191.287C555.783 195.13 553.862 200.392 553.862 207.075V232.51C553.862 234.348 553.319 235.81 552.233 236.896C551.231 237.898 549.811 238.399 547.973 238.399ZM621.421 238.399C614.989 238.399 609.267 237.314 604.255 235.142C599.243 232.886 595.275 229.879 592.351 226.12C591.516 225.034 591.098 223.948 591.098 222.862C591.098 221.025 591.975 219.646 593.73 218.728C594.481 218.31 595.275 218.101 596.11 218.101C597.53 218.101 598.992 218.853 600.496 220.356C603.252 223.28 606.301 225.41 609.643 226.747C612.984 228.083 616.826 228.751 621.17 228.751C625.18 228.751 628.437 228.125 630.943 226.872C633.533 225.535 634.828 223.739 634.828 221.484C634.828 219.813 634.326 218.435 633.324 217.349C632.405 216.263 630.776 215.219 628.437 214.217C626.099 213.214 622.423 211.878 617.411 210.207C608.974 207.534 603.002 204.778 599.493 201.937C596.069 199.097 594.356 195.38 594.356 190.786C594.356 185.857 596.486 181.931 600.746 179.008C605.09 176.001 610.937 174.497 618.288 174.497C623.718 174.497 628.73 175.416 633.324 177.254C638.002 179.008 641.469 181.43 643.724 184.521C644.476 185.523 644.852 186.567 644.852 187.653C644.852 189.073 644.1 190.285 642.596 191.287C641.51 191.955 640.424 192.289 639.338 192.289C637.668 192.289 636.081 191.538 634.577 190.034C632.572 188.029 630.233 186.567 627.56 185.649C624.971 184.646 621.838 184.145 618.163 184.145C614.237 184.145 611.23 184.73 609.141 185.899C607.137 187.069 606.134 188.739 606.134 190.911C606.134 192.582 606.594 193.918 607.512 194.921C608.431 195.923 610.018 196.884 612.274 197.803C614.529 198.721 618.288 200.016 623.551 201.687C629.398 203.525 633.951 205.362 637.208 207.2C640.55 209.038 642.93 211.084 644.35 213.34C645.77 215.595 646.481 218.31 646.481 221.484C646.481 226.58 644.183 230.673 639.589 233.763C635.078 236.854 629.022 238.399 621.421 238.399ZM691.381 238.399C680.521 238.399 672.043 235.601 665.945 230.004C659.931 224.324 656.923 216.472 656.923 206.448C656.923 196.508 659.889 188.698 665.82 183.017C671.834 177.337 680.145 174.497 690.754 174.497C697.27 174.497 703.033 175.541 708.045 177.629C713.141 179.634 717.109 182.516 719.949 186.275C722.789 189.95 724.209 194.169 724.209 198.93C724.209 202.606 723.123 205.446 720.951 207.451C718.863 209.455 715.856 210.458 711.93 210.458H668.451C668.451 216.305 670.414 220.858 674.34 224.115C678.35 227.29 684.03 228.877 691.381 228.877C695.724 228.877 699.483 228.417 702.658 227.498C705.915 226.58 708.964 225.076 711.804 222.988C713.893 221.568 715.48 220.858 716.566 220.858C717.568 220.858 718.487 221.275 719.322 222.111C720.492 223.28 721.077 224.491 721.077 225.744C721.077 226.997 720.492 228.167 719.322 229.253C712.473 235.351 703.159 238.399 691.381 238.399ZM708.421 201.687C709.925 201.687 711.011 201.394 711.679 200.81C712.347 200.225 712.681 199.181 712.681 197.677C712.681 193.668 710.635 190.41 706.542 187.904C702.532 185.314 697.27 184.02 690.754 184.02C683.988 184.02 678.6 185.607 674.591 188.781C670.665 191.955 668.702 196.257 668.702 201.687H708.421Z" fill="white"/>
<path d="M684.534 4.4684L687.72 0.486084L864.535 169.336L944.978 91.2829L948.96 95.2653L868.517 182.08C864.694 185.266 860.553 183.407 858.96 182.08L684.534 4.4684Z" fill="url(#paint0_linear_400_228)"/>
<path d="M1059.67 25.1763L1063.65 29.1586L895.598 205.177L973.652 285.62L969.669 289.602L881.262 209.159C878.076 206.611 879.934 202.788 881.262 201.195L1059.67 25.1763Z" fill="url(#paint1_linear_400_228)"/>
<path d="M780.906 315.089L777.72 311.903L858.959 223.496C861.508 220.31 864.8 222.168 866.128 223.496L1038.16 398.718L1034.98 402.7L862.145 237.036L780.906 315.089Z" fill="url(#paint2_linear_400_228)"/>
<path d="M756.216 117.566L753.03 120.752L831.083 201.991L662.233 378.806L666.215 381.992L844.623 205.974C847.172 202.788 845.685 199.336 844.623 198.009L756.216 117.566Z" fill="url(#paint3_linear_400_228)"/>
<defs>
<linearGradient id="paint0_linear_400_228" x1="948.992" y1="85.3222" x2="691.39" y2="87.3102" gradientUnits="userSpaceOnUse">
<stop stop-color="#2E2D7B"/>
<stop offset="1" stop-color="#02A7FD"/>
</linearGradient>
<linearGradient id="paint1_linear_400_228" x1="1063.67" y1="147.524" x2="884.269" y2="148.193" gradientUnits="userSpaceOnUse">
<stop stop-color="#2E2D7B"/>
<stop offset="1" stop-color="#02A7FD"/>
</linearGradient>
<linearGradient id="paint2_linear_400_228" x1="1038.2" y1="305.467" x2="784.473" y2="307.421" gradientUnits="userSpaceOnUse">
<stop stop-color="#2E2D7B"/>
<stop offset="1" stop-color="#02A7FD"/>
</linearGradient>
<linearGradient id="paint3_linear_400_228" x1="846.053" y1="239.914" x2="666.99" y2="240.58" gradientUnits="userSpaceOnUse">
<stop stop-color="#2E2D7B"/>
<stop offset="1" stop-color="#02A7FD"/>
</linearGradient>
</defs>
</svg>
